<svg xmlns="http://www.w3.org/2000/svg" width="25" height="25" fill="none"><g clip-path="url(#a)"><path fill="#fff" d="M5.161 9.251c-.085-.48.71-1.02 1.773-1.208L19.996 5.74c1.064-.188 1.995.05 2.08.529l.523 2.968c.085.48-.71 1.02-1.773 1.208L7.764 12.75c-1.064.187-1.995-.05-2.08-.53l-.523-2.968Z"/><path stroke="#131414" stroke-linecap="round" stroke-width="1.042" d="M5.412 8.269 20.447 5.45a1.389 1.389 0 0 1 1.603 1.026l.606 2.408"/><path fill="#fff" stroke="#131414" stroke-width="1.042" d="M3.125 10.497a2.293 2.293 0 0 1 2.293-2.294h15.55a2.293 2.293 0 0 1 2.293 2.294v7.837a2.293 2.293 0 0 1-2.293 2.294H5.418a2.293 2.293 0 0 1-2.293-2.294v-7.837Z"/><path fill="#39D67A" stroke="#39D67A" stroke-width="1.042" d="M17.398 12.606h4.83v2.782h-4.83a1.391 1.391 0 0 1 0-2.782Z"/><circle cx="18.055" cy="13.967" r="1.147" fill="#fff"/></g><defs><clipPath id="a"><path fill="#fff" d="M0 0h25v25H0z"/></clipPath></defs></svg>