<svg xmlns="http://www.w3.org/2000/svg" width="24" height="24" fill="none"><path fill="#39D67A" d="M21.248 17.897a9.187 9.187 0 0 0 .218-3.273c-.6-5.316-5.648-9.11-11.276-8.475-5.628.635-9.704 5.459-9.104 10.774.1.884.322 1.726.65 2.513.161.385.566.598.98.552l18.532-2.091Z"/><path fill="#fff" d="M20.863 17.448a.483.483 0 0 0 .465-.336 9.26 9.26 0 0 0 .416-2.75 9.26 9.26 0 1 0-18.106 2.75.483.483 0 0 0 .465.336h16.76Z"/><path fill="#131414" fill-rule="evenodd" d="M12.483 5.6a8.76 8.76 0 0 0-8.372 11.348h16.745a8.76 8.76 0 0 0 .388-2.587 8.76 8.76 0 0 0-8.76-8.76Zm-9.76 8.761c0-5.39 4.37-9.76 9.76-9.76s9.76 4.37 9.76 9.76a9.758 9.758 0 0 1-.437 2.9.983.983 0 0 1-.943.687H4.103a.983.983 0 0 1-.942-.687 9.758 9.758 0 0 1-.438-2.9Z" clip-rule="evenodd"/><path fill="#39D67A" d="M9.89 12.62a1.71 1.71 0 0 0 .619 3.114 1.709 1.709 0 0 0 1.75-.743l4.428-6.748a.038.038 0 0 0 0-.039.037.037 0 0 0-.05-.011L9.89 12.621Z"/><path fill="#000" fill-rule="evenodd" d="M10.437 13.458a.71.71 0 0 0 0 1.188l.002.001a.71.71 0 0 0 .984-.204l1.882-2.867-2.868 1.882Zm-.547-.837a1.71 1.71 0 0 0 .619 3.113 1.709 1.709 0 0 0 1.75-.743l4.428-6.748a.038.038 0 0 0 0-.039.037.037 0 0 0-.05-.011L9.89 12.621Z" clip-rule="evenodd"/></svg>