<svg xmlns="http://www.w3.org/2000/svg" width="28" height="28" fill="none"><circle cx="14" cy="14" r="10.5" fill="#fff" stroke="#1A1A1A" stroke-linejoin="round" stroke-width="1.458"/><path fill="#1A1A1A" d="M16.478 11.904a.597.597 0 0 1 0 1.194h-5.182a.597.597 0 0 1 0-1.194h5.182Zm-1.912 7.054c-.334 0-.652-.143-.874-.394l-2.86-3.236a.733.733 0 0 1 .55-1.218h.94c.4 0 .734-.063 1.002-.188.27-.127.476-.305.615-.533.142-.23.213-.501.213-.81 0-.466-.145-.84-.436-1.122-.29-.283-.756-.424-1.395-.424h-.903a.704.704 0 0 1 0-1.408h.903c.814 0 1.487.118 2.02.355.536.234.936.566 1.2.994.269.428.403.93.403 1.504 0 .507-.099.96-.296 1.358a2.368 2.368 0 0 1-.93.98c-.422.254-.974.425-1.657.51l-.007.001a.038.038 0 0 0-.017.06l3.008 3.473a.06.06 0 0 1-.045.099h-1.434Zm1.908-9.333a.605.605 0 1 1-.002 1.21l-3.958-.013a.599.599 0 0 1 .002-1.197h3.958Z"/></svg>