<svg xmlns="http://www.w3.org/2000/svg" width="28" height="28" fill="none"><path fill="#39D67A" d="m17.68 23.858.945.502c.823.436 1.8-.22 1.707-1.148L18.569 5.647a1.167 1.167 0 0 0-1.277-1.044l-13.93 1.4a1.167 1.167 0 0 0-1.044 1.276L4.08 24.845a1.167 1.167 0 0 0 1.902.784l.826-.68a1.167 1.167 0 0 1 1.48-.002l.91.745a1.167 1.167 0 0 0 1.642-.165l.612-.748a1.167 1.167 0 0 1 1.642-.165l.748.612a1.167 1.167 0 0 0 1.642-.165l.744-.911c.352-.43.96-.553 1.45-.292Z"/><path fill="#fff" stroke="#1A1A1A" stroke-linejoin="round" stroke-width="1.458" d="m19.463 22.697.89.594a1.167 1.167 0 0 0 1.814-.97V4.666c0-.645-.522-1.167-1.167-1.167H7c-.644 0-1.166.522-1.166 1.167V22.32a1.167 1.167 0 0 0 1.813.97l.89-.593a1.167 1.167 0 0 1 1.473.146l.832.832a1.166 1.166 0 0 0 1.65 0l.683-.683a1.167 1.167 0 0 1 1.65 0l.684.683a1.166 1.166 0 0 0 1.65 0l.832-.832a1.167 1.167 0 0 1 1.472-.146Z"/><path fill="#1A1A1A" d="M16.478 11.029a.597.597 0 0 1 0 1.194h-5.182a.597.597 0 0 1 0-1.194h5.182Zm-1.912 7.054c-.334 0-.652-.143-.874-.394l-2.86-3.236a.733.733 0 0 1 .55-1.219h.94c.4 0 .734-.062 1.002-.187.27-.127.476-.305.615-.533.142-.23.213-.501.213-.81 0-.466-.145-.84-.436-1.122-.29-.283-.756-.424-1.395-.424h-.903a.704.704 0 1 1 0-1.408h.903c.814 0 1.487.118 2.02.355.536.234.936.566 1.2.994.269.428.403.93.403 1.504 0 .507-.099.96-.296 1.358a2.368 2.368 0 0 1-.93.98c-.422.254-.974.425-1.657.51l-.007.001a.038.038 0 0 0-.017.06l3.008 3.473a.06.06 0 0 1-.045.099h-1.434Zm1.908-9.333a.605.605 0 1 1-.003 1.21l-3.957-.013a.598.598 0 0 1 .002-1.197h3.958Z"/></svg>