<svg xmlns="http://www.w3.org/2000/svg" width="27" height="27" fill="none"><path fill="#3AD67B" d="M7.963 22.538c-4.139-3.428.39-10.336 3.172-13.361-1.379-.105-3.492-4.289-2.195-3.869 1.207.39 1.332-.793 2.83.655.259.353 1.004 1.04 1.814-.159.845-1.253 1.058-1.23 2.205-1.106h.007c.476 1.253.829 2.254-.579 4.121 6.86 5.266 7.29 10.19 5.012 12.872-2.279 2.68-9.801 2.889-12.266.847Z"/><path fill="#3AD67B" d="m15.454 14.337-.128.635-3.457.302.127-.635 3.457-.302Zm-1.258 4.314-2.162-2.22-.05-.447.972-.085c.252-.022.464-.076.636-.163a.866.866 0 0 0 .38-.361.997.997 0 0 0 .093-.562c-.028-.325-.149-.572-.36-.74-.213-.17-.521-.237-.927-.201l-1.024.09.129-.614.843-.074c.434-.038.796.003 1.086.123.292.118.515.295.67.533.157.235.25.51.277.822a1.67 1.67 0 0 1-.119.798 1.36 1.36 0 0 1-.542.623c-.258.168-.609.271-1.054.31l-.016.002 1.997 2.05.004.043-.832.073Zm1.145-5.606-.128.635-2.723.217.13-.614 2.72-.238Zm1.099-8.64c.184.18.364 2.694-1.35 4.167-2.02.403-3.545.22-4.006.185-1.379-.105-3.175-3.723-3.41-4.5 1.33-.116 3.302-.213 4.8 1.235.26.354.28.232.665-.058.386-.29.565-.955 3.302-1.03Z"/><path stroke="#3AD67B" stroke-linecap="round" stroke-width=".501" d="M7.962 22.534c-4.139-3.428.687-10.618 3.47-13.643-1.83.16-3.173-3.694-4.105-4.77 2.177-.025 3.174-.278 5.495 1.505 1.396-1.28 1.716-1.162 4.24-.889-1.144 2.251.22 2.063-2.138 3.848 6.86 5.265 7.583 10.42 5.304 13.101-2.279 2.681-9.801 2.89-12.266.848Z"/><rect width="7.178" height="1.147" x=".271" y=".228" fill="#3AD67B" stroke="#3AD67B" stroke-width=".501" rx=".574" transform="rotate(-5 105.19 -99.296) skewX(.001)"/><path stroke="#3AD67B" stroke-linecap="round" stroke-width=".501" d="M.25-.25h2.621" transform="matrix(.6065 .79509 -.80202 .5973 10.868 6.293)"/><path stroke="#3AD67B" stroke-linecap="round" stroke-width=".501" d="M.25-.25h2.32" transform="matrix(-.27225 .96222 -.96449 -.26414 14.498 5.645)"/><path fill="#fff" d="M7.364 22.542C3.54 18.718 8.654 12.147 11.69 9.34c-1.364-.228-3.105-4.635-1.85-4.097 1.169.5 1.396-.683 2.762.91.227.38.91 1.138 1.82 0 .955-1.192 1.594-2.276 2.732-2.048.366 1.305.199 3.475-1.366 5.235 6.374 5.918 6.374 10.926 3.87 13.43-2.504 2.503-10.015 2.05-12.293-.228Z"/><path fill="#000" d="m15.67 16.067-.19.702h-3.553l.192-.702h3.552Zm-1.786 4.146-1.874-2.255-.003-.595h.927c.22 0 .406-.036.554-.11a.783.783 0 0 0 .34-.313.934.934 0 0 0 .118-.477c0-.273-.08-.492-.241-.658-.16-.166-.418-.25-.771-.25h-1.007l.208-.827h.799c.45 0 .822.07 1.116.209.297.137.518.332.664.584.149.252.223.546.223.884 0 .298-.055.564-.164.798a1.36 1.36 0 0 1-.514.576c-.234.15-.54.25-.918.3l-.032.01L15 20.165v.048h-1.117Zm1.792-5.485-.196.712-2.881-.01.195-.702h2.882Z"/><path fill="#fff" d="M18.521 3.41c.167.197-1.002 4.34-2.838 5.675-2.048.228-3.55-.09-4.007-.167-1.364-.228-2.838-4.037-3.005-4.841 1.336 0 3.309.076 4.675 1.67.227.379.258.257.668 0 .41-.259 1.774-2.505 4.507-2.338Z"/><path stroke="#131414" stroke-linecap="round" stroke-width="1.5" d="M7.363 22.545c-3.824-3.824 1.61-10.652 4.645-13.46-1.836 0-2.838-4.006-3.673-5.174 2.17.167 3.186 0 5.343 2.003 1.502-1.168 2.517-3.002 5.008-2.504-1.336 2.17-.667 4.082-3.172 5.676 6.375 5.918 6.646 11.183 4.142 13.687-2.504 2.504-10.016 2.05-12.293-.228Z"/><rect width="7.22" height="1.21" x="9.903" y="8.982" fill="#fff" stroke="#131414" stroke-width=".46" rx=".605"/><path stroke="#131414" stroke-linecap="round" stroke-width=".92" d="M.46-.46h2.23" transform="rotate(57.993 .05 13.74) skewX(-.002)"/><path stroke="#131414" stroke-linecap="round" stroke-width=".92" d="M.46-.46h1.933" transform="rotate(110.557 5.568 8.357) skewX(.002)"/></svg>