<svg width="200" height="200" viewBox="0 0 200 200" fill="none" xmlns="http://www.w3.org/2000/svg">
  <!-- Background Circle -->
  <circle cx="100" cy="100" r="90" fill="#F97316" opacity="0.1"/>
  <circle cx="100" cy="100" r="75" fill="#F97316" opacity="0.15"/>
  
  <!-- Main Icon - Modern Document/Journey -->
  <g transform="translate(60, 50)">
    <!-- Document Background -->
    <rect x="10" y="15" width="60" height="80" rx="8" fill="#F97316" opacity="0.9"/>
    <rect x="15" y="20" width="50" height="70" rx="6" fill="white"/>
    
    <!-- Journey Path Lines -->
    <path d="M25 35 L35 45 L45 35 L55 45" stroke="#F97316" stroke-width="3" fill="none" stroke-linecoin="round"/>
    <path d="M25 50 L35 60 L45 50 L55 60" stroke="#F97316" stroke-width="3" fill="none" stroke-linecoin="round"/>
    <path d="M25 65 L35 75 L45 65 L55 75" stroke="#F97316" stroke-width="3" fill="none" stroke-linecoin="round"/>
    
    <!-- Progress Dots -->
    <circle cx="25" cy="35" r="3" fill="#F97316"/>
    <circle cx="45" cy="35" r="3" fill="#F97316" opacity="0.6"/>
    <circle cx="35" cy="60" r="3" fill="#F97316"/>
    <circle cx="55" cy="75" r="3" fill="#F97316"/>
    
    <!-- Innovation Symbol -->
    <g transform="translate(40, 105)">
      <circle cx="0" cy="0" r="12" fill="#F97316"/>
      <path d="M-6 -3 L6 -3 M0 -8 L0 2 M-4 -6 L4 -6" stroke="white" stroke-width="2" stroke-linecap="round"/>
    </g>
  </g>
  
  <!-- Decorative Elements -->
  <circle cx="45" cy="45" r="3" fill="#F97316" opacity="0.3"/>
  <circle cx="155" cy="155" r="4" fill="#F97316" opacity="0.3"/>
  <circle cx="165" cy="35" r="2" fill="#F97316" opacity="0.4"/>
</svg>
