<svg width="200" height="200" viewBox="0 0 200 200" fill="none" xmlns="http://www.w3.org/2000/svg">
  <!-- Background -->
  <circle cx="100" cy="100" r="90" fill="#10B981" opacity="0.08"/>
  <circle cx="100" cy="100" r="70" fill="#10B981" opacity="0.12"/>
  
  <!-- Main Content - About Trovo -->
  <g transform="translate(50, 40)">
    <!-- Central Brand Symbol -->
    <circle cx="50" cy="60" r="35" fill="#10B981" opacity="0.15"/>
    <circle cx="50" cy="60" r="25" fill="#10B981" opacity="0.9"/>
    
    <!-- Trovo T Symbol -->
    <g fill="white">
      <rect x="40" y="45" width="20" height="4" rx="2"/>
      <rect x="48" y="45" width="4" height="25" rx="2"/>
    </g>
    
    <!-- Innovation Orbits -->
    <g stroke="#10B981" stroke-width="2" fill="none" opacity="0.6">
      <circle cx="50" cy="60" r="45"/>
      <circle cx="50" cy="60" r="55"/>
    </g>
    
    <!-- Technology Points -->
    <g fill="#10B981">
      <circle cx="20" cy="30" r="3" opacity="0.8"/>
      <circle cx="80" cy="25" r="3" opacity="0.8"/>
      <circle cx="90" cy="70" r="3" opacity="0.8"/>
      <circle cx="75" cy="100" r="3" opacity="0.8"/>
      <circle cx="25" cy="95" r="3" opacity="0.8"/>
      <circle cx="10" cy="65" r="3" opacity="0.8"/>
    </g>
    
    <!-- Connection Lines -->
    <g stroke="#10B981" stroke-width="1.5" opacity="0.4" stroke-dasharray="2,2">
      <path d="M20 30 L50 60"/>
      <path d="M80 25 L50 60"/>
      <path d="M90 70 L50 60"/>
      <path d="M75 100 L50 60"/>
      <path d="M25 95 L50 60"/>
      <path d="M10 65 L50 60"/>
    </g>
  </g>
  
  <!-- Fintech Elements -->
  <g transform="translate(140, 140)">
    <rect x="0" y="0" width="8" height="12" fill="#10B981" opacity="0.6" rx="1"/>
    <rect x="10" y="4" width="8" height="8" fill="#10B981" opacity="0.7" rx="1"/>
    <rect x="20" y="2" width="8" height="10" fill="#10B981" opacity="0.8" rx="1"/>
  </g>
  
  <!-- Decorative Elements -->
  <circle cx="40" cy="40" r="2" fill="#10B981" opacity="0.3"/>
  <circle cx="160" cy="50" r="2" fill="#10B981" opacity="0.3"/>
  <circle cx="170" cy="160" r="2" fill="#10B981" opacity="0.3"/>
</svg>
