<svg width="200" height="200" viewBox="0 0 200 200" fill="none" xmlns="http://www.w3.org/2000/svg">
  <!-- Background Circle -->
  <circle cx="100" cy="100" r="90" fill="#3B82F6" opacity="0.1"/>
  <circle cx="100" cy="100" r="75" fill="#8B5CF6" opacity="0.15"/>
  
  <!-- Main Icon - Future Vision/Telescope -->
  <g transform="translate(40, 70)">
    <!-- Telescope Base -->
    <ellipse cx="20" cy="45" rx="15" ry="8" fill="#3B82F6" opacity="0.8"/>
    <rect x="15" y="37" width="10" height="16" fill="#3B82F6"/>
    
    <!-- Telescope Body -->
    <rect x="25" y="25" width="60" height="12" rx="6" fill="#3B82F6"/>
    <rect x="30" y="27" width="50" height="8" rx="4" fill="#8B5CF6"/>
    
    <!-- Telescope Lens -->
    <circle cx="90" cy="31" r="8" fill="#3B82F6"/>
    <circle cx="90" cy="31" r="5" fill="white" opacity="0.9"/>
    <circle cx="90" cy="31" r="3" fill="#3B82F6" opacity="0.3"/>
    
    <!-- Vision Rays -->
    <g stroke="#8B5CF6" stroke-width="2" opacity="0.7">
      <path d="M98 31 L120 20"/>
      <path d="M98 31 L120 31"/>
      <path d="M98 31 L120 42"/>
    </g>
    
    <!-- Future Elements -->
    <g transform="translate(100, 15)">
      <circle cx="10" cy="5" r="3" fill="#8B5CF6" opacity="0.8"/>
      <circle cx="20" cy="15" r="2" fill="#3B82F6" opacity="0.6"/>
      <circle cx="15" cy="25" r="2.5" fill="#8B5CF6" opacity="0.7"/>
      
      <!-- Stars -->
      <path d="M5 10 L7 12 L5 14 L3 12 Z" fill="#8B5CF6"/>
      <path d="M25 8 L27 10 L25 12 L23 10 Z" fill="#3B82F6"/>
    </g>
  </g>
  
  <!-- Innovation Network -->
  <g stroke="#3B82F6" stroke-width="1.5" fill="#3B82F6" opacity="0.4">
    <circle cx="50" cy="50" r="2"/>
    <circle cx="150" cy="60" r="2"/>
    <circle cx="170" cy="140" r="2"/>
    <circle cx="30" cy="150" r="2"/>
    
    <path d="M50 50 L150 60 M150 60 L170 140 M170 140 L30 150" stroke-dasharray="3,3"/>
  </g>
</svg>
