<svg width="40" height="40" viewBox="0 0 40 40" fill="none" xmlns="http://www.w3.org/2000/svg">
  <!-- Outer ring segments -->
  <path d="M20 2 A18 18 0 0 1 35.5 11 L31.5 14.5 A12 12 0 0 0 20 8 Z" fill="#1ed760"/>
  <path d="M35.5 11 A18 18 0 0 1 38 20 L32 20 A12 12 0 0 0 31.5 14.5 Z" fill="#1ed760"/>
  <path d="M38 20 A18 18 0 0 1 35.5 29 L31.5 25.5 A12 12 0 0 0 32 20 Z" fill="#1ed760"/>
  <path d="M35.5 29 A18 18 0 0 1 20 38 L20 32 A12 12 0 0 0 31.5 25.5 Z" fill="#1ed760"/>
  <path d="M20 38 A18 18 0 0 1 4.5 29 L8.5 25.5 A12 12 0 0 0 20 32 Z" fill="#1ed760"/>
  <path d="M4.5 29 A18 18 0 0 1 2 20 L8 20 A12 12 0 0 0 8.5 25.5 Z" fill="#1ed760"/>
  <path d="M2 20 A18 18 0 0 1 4.5 11 L8.5 14.5 A12 12 0 0 0 8 20 Z" fill="#1ed760"/>
  <path d="M4.5 11 A18 18 0 0 1 20 2 L20 8 A12 12 0 0 0 8.5 14.5 Z" fill="#1ed760"/>
  
  <!-- Inner circle -->
  <circle cx="20" cy="20" r="6" fill="#1ed760"/>
</svg>
