<?xml version="1.0" encoding="UTF-8"?>
<svg id="Layer_1" xmlns="http://www.w3.org/2000/svg" version="1.1" viewBox="0 0 511.11 512.84">
  <!-- Generator: Adobe Illustrator 29.8.1, SVG Export Plug-In . SVG Version: 2.1.1 Build 2)  -->
  <defs>
    <style>
      .st0 {
        fill: #42ffa1;
      }
    </style>
  </defs>
  <path class="st0" d="M249.1,145.46c88.36-4.44,146.5,92.22,100.73,168.39-41.41,68.92-140.79,72.02-186.58,5.95-49.71-71.71-.7-170,85.86-174.35h-.01Z"/>
  <path class="st0" d="M412.76,445.15l-47.99-69.8c4.59-5.36,9.84-10.33,14.39-15.84,31.14-37.74,43.78-87.98,33.63-136.17l81.26-24.25c.66.06,2.22,8.12,2.49,9.46,17.01,85.04-12.64,172.69-76.11,230.62-1.77,1.61-4.6,4.24-6.48,5.52-.4.27-.48.67-1.2.47h.01,0Z"/>
  <path class="st0" d="M172.96,396.22c17.6,9.88,36.83,17.03,56.9,20.06,35.67,5.39,71.4-1.07,102.99-18.11l48.18,69.7c-.14.74-6.97,4.48-8.25,5.18-76.59,42.36-175.11,39.89-248.75-7.55l48.93-69.28h0Z"/>
  <path class="st0" d="M15.92,196.2l80.72,24.74c-1.03,7.65-2.7,15.25-3.31,22.97-3.44,43.4,11.63,87.86,40.52,120.17,1.26,1.41,7.88,7.33,7.91,8.38l-49.22,69.3c-.64.2-.93-.11-1.4-.43-1-.67-3.85-3.5-5.02-4.58C24.88,380.49-2.81,293.94,12.02,211.98c.71-3.93,1.74-11.18,3.13-14.62.19-.46.16-.99.77-1.17h0Z"/>
  <path class="st0" d="M237.69,10.52v85.39c-53.83,4.84-103.53,39.38-127.14,87.76l-82.44-25.15C64.07,75.12,146.46,15.88,237.69,10.52h0Z"/>
  <path class="st0" d="M276.54,11c90.28,7.03,171.7,67.39,205.76,150.87l-82.18,23.71c-3.12-5.11-5.74-10.49-8.94-15.55-25.1-39.66-67.84-67.62-114.64-73.63V11.01h0Z"/>
</svg>