<svg width="28" height="28" viewBox="0 0 28 28" fill="none" xmlns="http://www.w3.org/2000/svg">
<g clip-path="url(#clip0_2315_277)">
<mask id="mask0_2315_277" style="mask-type:luminance" maskUnits="userSpaceOnUse" x="0" y="0" width="28" height="28">
<path d="M0 0H28V28H0V0Z" fill="white"/>
</mask>
<g mask="url(#mask0_2315_277)">
<path d="M12.9512 26.0507L12.6132 26.0307C12.6052 26.0187 12.6002 26.0027 12.5902 25.9967C11.1018 25.1929 9.69511 24.2461 8.3902 23.1697C7.1672 22.1597 6.0442 21.0527 5.2032 19.6907C4.5442 18.6257 4.1482 17.4807 4.2292 16.2047C4.4222 13.1367 4.6202 10.0677 4.8182 6.99967C4.8462 6.56167 5.0172 6.36467 5.4462 6.26467C6.8242 6.38967 8.7312 6.28467 10.1332 5.95967C11.5372 5.63367 12.8292 4.84767 13.8662 4.31367C14.0592 4.26967 14.2952 4.28567 14.4822 4.35367C16.0552 5.69667 16.6262 5.95967 17.9752 6.46167C19.3052 6.95667 21.2012 7.31167 22.5252 7.33867C22.8352 7.45267 23.0522 7.62367 23.1292 7.95267L22.5022 17.7367C22.4862 17.7967 22.4732 17.8597 22.4532 17.9187C22.2862 18.4207 22.1672 18.9457 21.9402 19.4187C21.3372 20.6727 20.3672 21.6287 19.3002 22.4817C17.6302 23.8157 15.7752 24.8337 13.8222 25.6787L12.9522 26.0517L12.9512 26.0507Z" fill="#39D67A"/>
<path d="M14.6695 25.4554H14.3185C14.3095 25.4444 14.3035 25.4274 14.2925 25.4224C12.6968 24.6718 11.1789 23.7661 9.7605 22.7184C8.4285 21.7354 7.1935 20.6404 6.2325 19.2584C5.4805 18.1764 4.9945 16.9924 4.9945 15.6394C4.9905 12.3834 4.9925 9.12738 4.9945 5.87038C4.9945 5.40638 5.1575 5.18638 5.5945 5.05138C7.0285 5.09138 8.9945 4.85138 10.4235 4.41138C11.8545 3.97138 13.1385 3.05438 14.1755 2.41938C14.3735 2.35938 14.6185 2.36038 14.8155 2.42138C16.5325 3.73338 17.1405 3.97238 18.5695 4.41138C19.9795 4.84538 21.9635 5.09138 23.3355 5.03138C23.6625 5.13038 23.8985 5.29638 23.9995 5.63838V16.0214C23.9875 16.0874 23.9775 16.1534 23.9615 16.2174C23.8215 16.7594 23.7335 17.3224 23.5295 17.8374C22.9895 19.2034 22.0495 20.2784 21.0005 21.2534C19.3625 22.7754 17.5105 23.9774 15.5455 25.0034L14.6695 25.4554Z" fill="white"/>
<path fill-rule="evenodd" clip-rule="evenodd" d="M14.2925 25.4219C14.3005 25.4259 14.3055 25.4349 14.3105 25.4439C14.313 25.4477 14.3157 25.4514 14.3185 25.4549H14.6705L14.9985 25.2849L15.5455 25.0019C17.5115 23.9769 19.3625 22.7749 21.0005 21.2519C22.0495 20.2779 22.9895 19.2019 23.5295 17.8369C23.6695 17.4809 23.7555 17.1019 23.8415 16.7229C23.8795 16.5529 23.9175 16.3839 23.9615 16.2169C23.978 16.1524 23.9907 16.087 23.9995 16.0209V5.63794C23.8995 5.29594 23.6625 5.12994 23.3355 5.02994C21.9635 5.08994 19.9795 4.84494 18.5695 4.41194C17.1395 3.97194 16.5325 3.73194 14.8155 2.42094C14.6066 2.36038 14.3848 2.35968 14.1755 2.41894C13.9875 2.53494 13.7905 2.65894 13.5855 2.78894C12.6655 3.37194 11.5945 4.05194 10.4235 4.41194C8.9945 4.84994 7.0285 5.08994 5.5945 5.05194C5.1575 5.18594 4.9945 5.40594 4.9945 5.86994C4.9925 9.12694 4.9905 12.3829 4.9945 15.6399C4.9945 16.9919 5.4805 18.1759 6.2325 19.2569C7.1925 20.6399 8.4285 21.7339 9.7605 22.7179C11.1789 23.7657 12.6968 24.6714 14.2925 25.4219ZM6.1485 6.20794C6.14637 9.35127 6.14637 12.4946 6.1485 15.6379C6.1495 16.6949 6.5235 17.6529 7.1805 18.5979C8.0405 19.8359 9.1645 20.8429 10.4465 21.7899C11.7201 22.7304 13.0779 23.5512 14.5025 24.2419L15.0125 23.9779C16.9135 22.9859 18.6725 21.8399 20.2145 20.4069C21.2135 19.4779 22.0085 18.5429 22.4545 17.4129M6.1485 6.20794C7.6115 6.18294 9.3945 5.93594 10.7635 5.51494C12.0995 5.10494 13.3365 4.31794 14.2535 3.73494L14.4635 3.60094C15.1705 4.12694 15.7265 4.49094 16.2755 4.77094C16.9175 5.09994 17.5105 5.29394 18.2305 5.51494C19.5905 5.93294 21.4045 6.18694 22.8465 6.19394V15.9169C22.8455 15.9213 22.8445 15.9256 22.8435 15.9299C22.7785 16.1819 22.7325 16.3889 22.6915 16.5719C22.6195 16.8919 22.5645 17.1379 22.4565 17.4119" fill="#1A1A1A"/>
</g>
<path d="M14.9107 11.1919C16.3441 11.1197 17.2873 12.6899 16.5448 13.9272C15.873 15.0468 14.2608 15.0971 13.5179 14.0239C12.7115 12.859 13.5066 11.2624 14.9108 11.1917L14.9107 11.1919Z" fill="black"/>
<path d="M17.5656 16.0605L16.7871 14.9267C16.8616 14.8396 16.9467 14.7589 17.0206 14.6694C17.5257 14.0563 17.7308 13.2402 17.5661 12.4574L18.8844 12.0635C18.8951 12.0645 18.9204 12.1954 18.9248 12.2171C19.2008 13.5986 18.7197 15.0224 17.6901 15.9634C17.6614 15.9895 17.6155 16.0323 17.585 16.053C17.5785 16.0574 17.5772 16.0639 17.5655 16.0607L17.5656 16.0605Z" fill="black"/>
<path d="M13.6746 15.2656C13.9602 15.4261 14.2721 15.5423 14.5977 15.5915C15.1764 15.679 15.756 15.5741 16.2685 15.2973L17.0502 16.4295C17.0479 16.4415 16.9371 16.5023 16.9163 16.5137C15.6738 17.2018 14.0755 17.1616 12.8809 16.391L13.6746 15.2656Z" fill="black"/>
<path d="M11.127 12.0168L12.4365 12.4186C12.4198 12.5429 12.3927 12.6664 12.3828 12.7918C12.327 13.4968 12.5715 14.219 13.0402 14.7438C13.0606 14.7667 13.168 14.8629 13.1685 14.88L12.37 16.0057C12.3596 16.0089 12.3549 16.0039 12.3473 15.9987C12.3311 15.9878 12.2848 15.9418 12.2658 15.9243C11.2724 15.0104 10.8231 13.6045 11.0637 12.2731C11.0752 12.2093 11.092 12.0915 11.1145 12.0356C11.1176 12.0281 11.1171 12.0195 11.127 12.0166V12.0168Z" fill="black"/>
<path d="M14.7242 9V10.3871C13.8509 10.4657 13.0447 11.0268 12.6616 11.8127L11.3242 11.4041C11.9076 10.0494 13.2442 9.08707 14.7242 9Z" fill="black"/>
<path d="M15.3555 9.00781C16.8201 9.12201 18.1409 10.1025 18.6935 11.4586L17.3603 11.8437C17.3097 11.7607 17.2672 11.6733 17.2153 11.5911C16.8081 10.9469 16.1147 10.4927 15.3555 10.3951V9.00797V9.00781Z" fill="black"/>
</g>
<defs>
<clipPath id="clip0_2315_277">
<rect width="28" height="28" fill="white"/>
</clipPath>
</defs>
</svg>
